<?xml version="1.0" standalone="no"?>
<!DOCTYPE svg PUBLIC "-//W3C//DTD SVG 20010904//EN"
 "http://www.w3.org/TR/2001/REC-SVG-20010904/DTD/svg10.dtd">
<svg version="1.0" xmlns="http://www.w3.org/2000/svg"
 width="750.000000pt" height="422.000000pt" viewBox="0 0 750.000000 422.000000"
 preserveAspectRatio="xMidYMid meet">
<metadata>
Created by potrace 1.16, written by Peter Selinger 2001-2019
</metadata>
<g transform="translate(0.000000,422.000000) scale(0.100000,-0.100000)"
fill="#000000" stroke="none">
<path d="M4120 4036 c-32 -21 -39 -35 -69 -132 -28 -90 -64 -186 -77 -203 -1
-1 -13 4 -25 12 -20 15 -25 14 -60 -3 -30 -16 -40 -29 -52 -67 -58 -182 -68
-203 -112 -228 -48 -29 -55 -43 -105 -225 -17 -63 -41 -145 -53 -182 l-21 -66
-29 20 -28 20 -38 -27 c-22 -14 -41 -34 -44 -43 -10 -31 -78 -266 -98 -337
-23 -80 -21 -78 -112 -134 -62 -38 -73 -42 -105 -34 l-37 9 -14 102 c-13 96
-15 103 -39 109 -15 3 -35 -1 -52 -11 -16 -9 -30 -16 -32 -16 -2 0 -22 36 -43
80 -21 44 -44 80 -50 80 -5 0 -77 -41 -160 -90 -82 -49 -156 -90 -163 -90 -7
0 -18 11 -24 25 -6 14 -17 25 -25 25 -7 0 -127 -66 -266 -147 -138 -81 -304
-177 -367 -213 -63 -37 -230 -137 -370 -222 -236 -143 -255 -156 -255 -182 0
-25 -12 -36 -96 -90 -54 -33 -107 -68 -119 -76 l-22 -15 38 -49 37 -49 -38
-31 -38 -32 99 -119 c129 -156 354 -425 418 -497 43 -49 52 -55 69 -46 12 6
22 6 26 1 36 -53 76 -103 83 -103 4 0 42 25 84 55 42 30 87 55 99 55 19 0 141
76 186 116 26 23 37 16 65 -38 30 -59 39 -68 63 -61 10 2 116 83 236 178 121
96 221 172 223 170 2 -2 -16 -88 -41 -192 -25 -103 -82 -343 -128 -532 l-82
-344 46 -44 47 -44 88 74 c102 88 312 276 395 355 51 49 58 59 57 91 -3 58 -1
68 18 91 14 18 19 19 19 7 0 -9 -4 -14 -9 -11 -14 9 -9 -14 7 -30 18 -17 20
-36 4 -36 -8 0 -8 -4 1 -14 6 -8 10 -32 9 -53 -2 -21 0 -44 5 -51 4 -7 3 -12
-3 -12 -5 0 -13 5 -16 10 -3 6 -10 10 -16 10 -16 0 -10 -25 10 -40 11 -7 18
-17 15 -21 -2 -4 5 -5 16 -2 10 3 34 -4 52 -15 36 -21 100 -56 223 -122 100
-53 104 -57 98 -79 -4 -17 -8 -17 -50 7 -25 14 -48 34 -51 44 -2 10 -8 18 -12
18 -5 0 -17 3 -27 6 -15 5 -15 4 -3 -5 36 -26 -11 -7 -97 39 -109 60 -111 59
-97 -58 l9 -76 132 -71 c148 -79 148 -79 139 -94 -4 -7 -51 13 -123 51 l-116
61 -18 -24 c-13 -16 -19 -41 -19 -76 l0 -53 146 0 c80 0 154 5 164 10 13 7 21
7 25 0 4 -7 662 -10 1951 -10 1749 0 1944 2 1944 15 0 9 -7 29 -15 45 -15 30
-16 30 -88 25 -193 -14 -440 -24 -448 -19 -5 3 -9 13 -9 23 0 15 8 16 85 9 88
-9 125 -1 125 27 0 35 29 45 128 45 118 1 133 9 139 77 4 38 1 54 -15 72 -19
24 -20 25 -121 15 -55 -5 -101 -6 -101 -3 0 3 5 20 11 37 11 33 17 35 149 47
l66 6 12 -35 13 -36 63 0 c35 0 91 3 125 6 l61 7 0 78 c0 71 -2 79 -19 79 -11
0 -21 9 -24 22 -2 13 -8 31 -12 41 -6 14 -2 17 24 17 l31 0 0 79 0 79 -46 -6
c-44 -5 -45 -4 -39 21 4 14 1 42 -5 63 l-12 36 -48 -6 c-45 -6 -49 -5 -52 16
-2 13 0 33 6 45 7 18 3 31 -18 63 -14 22 -28 40 -30 40 -2 0 -55 -16 -117 -35
-105 -32 -115 -33 -126 -18 -20 26 -16 30 40 42 80 18 304 81 377 106 l65 23
3 86 c1 47 0 86 -4 86 -8 0 -149 -42 -272 -82 -85 -27 -140 -31 -116 -9 5 5
96 37 202 71 l192 62 0 195 c0 152 -3 194 -12 189 -7 -2 -31 -10 -52 -17 -33
-11 -42 -21 -63 -69 -14 -30 -32 -63 -40 -72 -17 -19 -49 -25 -38 -7 9 13 -1
49 -19 72 -13 17 -18 16 -92 -13 -92 -35 -84 -34 -84 -15 0 25 -23 65 -37 65
-8 0 -128 -43 -267 -95 -139 -52 -257 -95 -262 -95 -12 1 59 30 303 126 172
67 204 83 213 105 14 32 -5 79 -31 79 -9 0 -61 -18 -115 -40 -109 -44 -114
-46 -114 -27 0 7 -7 22 -15 34 l-15 21 -132 -53 -133 -53 -17 29 c-10 16 -20
29 -23 29 -6 0 -189 -73 -248 -100 -29 -13 -59 -36 -76 -60 -26 -35 -28 -37
-39 -19 -7 10 -18 19 -26 19 -8 0 -108 -38 -223 -83 -114 -46 -257 -103 -318
-126 -107 -42 -119 -50 -188 -128 -18 -21 -19 -24 -4 -47 12 -18 22 -23 38
-19 19 5 20 3 11 -14 -16 -29 -30 -39 -107 -68 -38 -15 -80 -38 -92 -51 -12
-13 -25 -24 -28 -24 -4 0 -18 14 -33 32 -15 18 -51 59 -79 91 -29 33 -53 65
-53 71 0 7 29 33 64 59 35 26 79 64 97 84 46 50 118 103 142 103 17 0 212 136
538 376 82 61 132 105 144 128 l19 35 -29 32 -30 31 -35 -40 c-19 -21 -123
-104 -230 -183 -108 -79 -209 -154 -225 -166 -96 -72 -155 -113 -161 -113 -4
0 1 7 12 15 12 9 14 14 6 15 -8 0 -33 -16 -56 -35 -24 -19 -46 -35 -49 -35
-10 0 -43 -29 -124 -107 -41 -40 -78 -73 -83 -73 -5 0 -19 -10 -31 -23 l-21
-22 11 23 c6 12 15 22 20 22 4 0 17 8 29 17 11 10 34 29 51 42 16 14 28 28 25
32 -4 7 32 37 157 129 26 19 74 56 107 82 33 27 66 46 74 43 16 -5 196 126
192 140 -1 6 49 48 112 95 127 94 170 140 151 159 -9 10 -5 17 18 33 17 12 53
44 80 73 28 28 90 82 140 120 105 82 134 112 135 141 0 15 24 41 73 79 142
114 152 128 121 174 l-16 23 -32 -29 c-17 -16 -53 -47 -81 -69 -27 -22 -133
-107 -235 -189 -102 -82 -300 -238 -440 -347 -140 -108 -272 -211 -292 -228
-61 -52 -43 -55 22 -5 33 25 60 43 60 39 0 -5 5 -3 12 4 7 7 16 12 22 12 5 0
-6 -11 -25 -24 -54 -39 -69 -51 -159 -125 -47 -39 -96 -76 -110 -83 -14 -7
-31 -21 -38 -31 -7 -9 -17 -15 -21 -12 -5 2 -7 -6 -6 -19 2 -16 -7 -33 -26
-50 -32 -29 -41 -59 -11 -35 10 8 7 3 -8 -11 -14 -14 -32 -34 -40 -44 -14 -18
-14 -19 10 -6 14 7 27 16 30 20 5 7 109 86 145 110 23 16 75 57 130 103 33 27
51 35 40 17 -15 -24 -367 -280 -377 -274 -6 4 -8 3 -5 -3 4 -6 -12 -25 -34
-43 -33 -26 -43 -30 -50 -19 -6 10 -9 11 -10 2 -1 -7 -2 -17 -3 -23 0 -5 -6
-14 -13 -21 -10 -10 -16 -9 -28 1 -15 12 -42 87 -34 93 53 40 115 96 181 164
82 83 111 122 71 93 -42 -30 -186 -146 -229 -184 l-44 -38 -77 33 c-52 23 -98
53 -143 94 -36 33 -80 72 -98 87 -20 17 -30 33 -26 39 4 8 3 9 -5 5 -6 -4 -28
9 -52 31 l-41 39 60 80 c33 43 79 97 103 119 25 23 14 9 -24 -34 -37 -41 -66
-79 -64 -85 2 -6 -9 -27 -24 -47 -28 -36 -40 -64 -18 -42 6 6 18 9 27 5 11 -4
14 -1 10 10 -6 15 105 167 147 199 23 19 90 109 80 109 -4 0 3 14 15 30 12 17
26 27 32 24 7 -4 8 -2 4 4 -6 10 198 292 211 292 3 0 1 -6 -4 -12 -5 -7 -47
-62 -92 -121 -46 -60 -81 -111 -78 -114 7 -7 -107 -157 -173 -228 -25 -27 -55
-61 -65 -74 l-20 -25 32 22 c17 12 68 65 113 118 45 52 85 93 88 90 3 -4 15 3
26 13 12 11 26 21 31 23 6 2 9 8 7 13 -2 6 0 7 4 2 4 -4 19 3 32 15 24 22 24
21 -2 -14 -16 -21 -33 -38 -39 -38 -6 0 -7 -3 -4 -7 4 -3 16 2 27 12 11 10 20
14 20 9 0 -5 28 20 62 56 35 36 62 68 61 71 -1 4 25 39 57 78 56 66 61 76 36
72 -5 -1 6 16 25 38 138 161 180 213 175 218 -3 3 -16 -7 -28 -23 -49 -61
-101 -119 -117 -128 -9 -5 12 21 47 59 34 37 62 72 62 78 0 17 80 118 89 112
5 -2 8 3 7 13 0 9 4 16 10 15 6 -1 11 4 11 10 0 12 298 401 350 458 14 15 21
29 15 32 -5 4 -33 -25 -62 -64 -29 -38 -58 -73 -64 -76 -13 -8 -16 -12 76 107
36 47 75 94 87 104 l21 19 -22 24 c-12 13 -29 23 -38 23 -9 0 -27 11 -40 25
-13 14 -29 25 -35 25 -22 0 -91 -84 -286 -346 -142 -191 -194 -254 -206 -250
-28 11 -61 -21 -159 -154 -53 -72 -100 -130 -104 -130 -5 0 -12 4 -15 10 -13
21 -91 -60 -201 -212 -63 -87 -112 -163 -109 -168 4 -6 -15 -39 -41 -75 -37
-50 -50 -62 -61 -54 -21 18 -76 -32 -150 -132 -67 -92 -84 -109 -59 -61 7 15
71 166 141 335 l128 308 -22 23 c-18 20 -20 27 -11 51 8 22 8 32 -3 42 -14 15
-14 15 128 362 37 90 37 95 20 107 -46 34 -84 -3 -131 -126 -19 -52 -44 -118
-55 -146 -17 -44 -23 -52 -44 -50 -36 2 -32 29 10 71 37 36 50 63 135 279 45
115 49 130 34 140 -14 11 -13 18 12 80 l27 69 -24 18 c-13 10 -30 17 -36 14
-18 -6 -16 6 7 60 l20 47 -22 19 c-29 24 -31 24 -76 -5 -33 -20 -42 -35 -66
-106 -37 -111 -67 -178 -73 -162 -5 14 58 202 152 451 12 32 11 36 -10 53 -27
21 -46 23 -64 6 -10 -11 -11 -7 -5 17 4 17 13 47 21 69 19 56 17 70 -16 89
-27 16 -32 16 -63 1 -38 -18 -47 -39 -143 -336 -77 -241 -160 -469 -171 -471
-22 -5 -10 47 64 270 120 364 162 497 162 510 0 15 -40 43 -60 42 -8 0 -31
-11 -50 -23z m-270 -738 c0 -2 -15 -50 -34 -107 -35 -107 -36 -141 -2 -154 14
-6 13 -15 -9 -74 -14 -37 -35 -77 -47 -88 l-21 -20 7 25 c20 81 19 102 -4 120
l-22 17 36 115 c33 107 65 168 87 168 5 0 9 -1 9 -2z m8 -1446 c21 -14 4 -159
-23 -190 l-21 -25 -62 44 c-34 24 -60 48 -59 52 3 9 139 125 147 126 3 0 11
-3 18 -7z m-889 -865 c1 -22 -15 -46 -68 -104 l-70 -76 6 -61 6 -62 -69 -62
c-38 -34 -70 -58 -72 -52 -3 9 61 254 76 292 4 9 45 56 91 104 90 92 98 94
100 21z m1846 -79 c75 -38 85 -45 85 -70 0 -15 -4 -30 -10 -33 -5 -3 -10 -17
-10 -29 0 -19 -7 -25 -32 -29 -30 -4 -39 2 -110 77 l-77 81 27 22 c15 13 30
23 34 23 4 0 46 -19 93 -42z m-205 -293 c0 -5 -18 -30 -39 -54 l-38 -44 -23
21 c-31 29 -56 28 -75 -2 -18 -27 -9 -57 21 -74 15 -9 15 -12 -2 -41 -10 -17
-23 -30 -29 -29 -5 2 -47 22 -93 46 l-82 42 67 82 c38 44 95 101 128 125 l59
43 53 -52 c29 -29 53 -57 53 -63z"/>
<path d="M1994 515 c-4 -9 -1 -50 5 -93 6 -42 18 -142 26 -222 24 -223 12
-200 111 -200 l84 0 0 34 c0 18 -3 61 -7 95 -5 54 -10 64 -30 74 -18 8 -29 8
-44 -1 -36 -23 -34 -28 -59 193 -8 81 -15 103 -31 118 -26 21 -48 22 -55 2z"/>
</g>
</svg>
